<mxfile host="65bd71144e">
    <diagram id="tcDrmfTRHUp_iAOUrRal" name="Page-1">
        <mxGraphModel dx="446" dy="515" grid="1" gridSize="10" guides="1" tooltips="1" connect="1" arrows="0" fold="1" page="1" pageScale="1" pageWidth="850" pageHeight="1100" math="0" shadow="0">
            <root>
                <mxCell id="0"/>
                <mxCell id="1" parent="0"/>
                <mxCell id="14" value="" style="edgeStyle=none;orthogonalLoop=1;jettySize=auto;html=1;rounded=1;entryX=1;entryY=0.5;entryDx=0;entryDy=0;" edge="1" parent="1" target="12">
                    <mxGeometry width="80" relative="1" as="geometry">
                        <mxPoint x="340" y="235" as="sourcePoint"/>
                        <mxPoint x="420" y="234.5" as="targetPoint"/>
                        <Array as="points"/>
                    </mxGeometry>
                </mxCell>
                <mxCell id="2" value="" style="whiteSpace=wrap;html=1;hachureGap=4;fontFamily=Architects Daughter;fontSource=https%3A%2F%2Ffonts.googleapis.com%2Fcss%3Ffamily%3DArchitects%2BDaughter;fontSize=20;fillColor=#0050ef;fontColor=#ffffff;strokeColor=#001DBC;rounded=1;" vertex="1" parent="1">
                    <mxGeometry x="160" y="10" width="190" height="60" as="geometry"/>
                </mxCell>
                <mxCell id="10" value="Welcom" style="text;strokeColor=#C73500;align=center;fillColor=#fa6800;html=1;verticalAlign=middle;whiteSpace=wrap;rounded=1;fontColor=#000000;fillStyle=solid;" vertex="1" parent="1">
                    <mxGeometry x="330" y="160" width="80" height="40" as="geometry"/>
                </mxCell>
                <mxCell id="3" value="WELCOM PORT" style="text;strokeColor=none;align=center;fillColor=none;html=1;verticalAlign=middle;whiteSpace=wrap;rounded=1;hachureGap=4;fontFamily=Architects Daughter;fontSource=https%3A%2F%2Ffonts.googleapis.com%2Fcss%3Ffamily%3DArchitects%2BDaughter;fontSize=20;" vertex="1" parent="1">
                    <mxGeometry x="160" y="30" width="170" height="20" as="geometry"/>
                </mxCell>
                <mxCell id="6" value="" style="edgeStyle=none;orthogonalLoop=1;jettySize=auto;html=1;hachureGap=4;fontFamily=Architects Daughter;fontSource=https%3A%2F%2Ffonts.googleapis.com%2Fcss%3Ffamily%3DArchitects%2BDaughter;fontSize=16;exitX=0.5;exitY=1;exitDx=0;exitDy=0;rounded=1;" edge="1" parent="1" source="2">
                    <mxGeometry width="80" relative="1" as="geometry">
                        <mxPoint x="250" y="70" as="sourcePoint"/>
                        <mxPoint x="160" y="160" as="targetPoint"/>
                        <Array as="points"/>
                    </mxGeometry>
                </mxCell>
                <mxCell id="7" value="" style="edgeStyle=none;orthogonalLoop=1;jettySize=auto;html=1;hachureGap=4;fontFamily=Architects Daughter;fontSource=https%3A%2F%2Ffonts.googleapis.com%2Fcss%3Ffamily%3DArchitects%2BDaughter;fontSize=16;rounded=1;" edge="1" parent="1">
                    <mxGeometry width="80" relative="1" as="geometry">
                        <mxPoint x="254.5" y="70" as="sourcePoint"/>
                        <mxPoint x="360" y="160" as="targetPoint"/>
                        <Array as="points"/>
                    </mxGeometry>
                </mxCell>
                <mxCell id="11" value="Kebeb" style="text;strokeColor=#2D7600;align=center;fillColor=#60a917;html=1;verticalAlign=middle;whiteSpace=wrap;rounded=1;fontFamily=Helvetica;fontColor=#ffffff;" vertex="1" parent="1">
                    <mxGeometry x="110" y="160" width="80" height="40" as="geometry"/>
                </mxCell>
                <mxCell id="12" value="Index.html" style="text;strokeColor=#B20000;align=center;fillColor=#e51400;html=1;verticalAlign=middle;whiteSpace=wrap;rounded=1;fontColor=#ffffff;" vertex="1" parent="1">
                    <mxGeometry x="350" y="220" width="60" height="30" as="geometry"/>
                </mxCell>
                <mxCell id="13" value="" style="edgeStyle=none;orthogonalLoop=1;jettySize=auto;html=1;rounded=1;exitX=0.15;exitY=1.025;exitDx=0;exitDy=0;fillColor=#a0522d;strokeColor=#6D1F00;exitPerimeter=0;" edge="1" parent="1" source="10">
                    <mxGeometry width="80" relative="1" as="geometry">
                        <mxPoint x="300" y="250" as="sourcePoint"/>
                        <mxPoint x="342" y="330" as="targetPoint"/>
                        <Array as="points"/>
                    </mxGeometry>
                </mxCell>
                <mxCell id="15" value="" style="edgeStyle=none;orthogonalLoop=1;jettySize=auto;html=1;rounded=1;exitX=0.113;exitY=1.025;exitDx=0;exitDy=0;exitPerimeter=0;fillColor=#b1ddf0;strokeColor=#10739e;" edge="1" parent="1" source="11">
                    <mxGeometry width="80" relative="1" as="geometry">
                        <mxPoint x="120" y="210" as="sourcePoint"/>
                        <mxPoint x="120" y="400" as="targetPoint"/>
                        <Array as="points"/>
                    </mxGeometry>
                </mxCell>
                <mxCell id="16" value="" style="edgeStyle=none;orthogonalLoop=1;jettySize=auto;html=1;rounded=1;" edge="1" parent="1">
                    <mxGeometry width="80" relative="1" as="geometry">
                        <mxPoint x="120" y="240" as="sourcePoint"/>
                        <mxPoint x="160" y="240" as="targetPoint"/>
                        <Array as="points"/>
                    </mxGeometry>
                </mxCell>
                <mxCell id="18" value="1-html&lt;br&gt;2-html&lt;br&gt;3-html&lt;br&gt;4-html" style="text;strokeColor=#005700;align=center;fillColor=#008a00;html=1;verticalAlign=middle;whiteSpace=wrap;rounded=0;fontColor=#ffffff;" vertex="1" parent="1">
                    <mxGeometry x="160" y="240" width="60" height="120" as="geometry"/>
                </mxCell>
            </root>
        </mxGraphModel>
    </diagram>
    <diagram id="qeFUFC6d_jkyqC4MmQ_O" name="Styles">
        <mxGraphModel dx="542" dy="515" grid="1" gridSize="10" guides="1" tooltips="1" connect="1" arrows="1" fold="1" page="1" pageScale="1" pageWidth="850" pageHeight="1100" math="0" shadow="0">
            <root>
                <mxCell id="0"/>
                <mxCell id="1" parent="0"/>
                <mxCell id="4fZSyBF3xoJqCPHSqPE3-7" value="Actor" style="shape=umlActor;verticalLabelPosition=bottom;verticalAlign=top;html=1;outlineConnect=0;rounded=1;shadow=1;glass=0;sketch=0;fillColor=none;" vertex="1" parent="1">
                    <mxGeometry x="220" y="110" width="80" height="160" as="geometry"/>
                </mxCell>
                <mxCell id="4fZSyBF3xoJqCPHSqPE3-9" value="" style="endArrow=classic;startArrow=classic;html=1;rounded=1;exitX=0.75;exitY=0.1;exitDx=0;exitDy=0;exitPerimeter=0;" edge="1" parent="1" source="4fZSyBF3xoJqCPHSqPE3-7">
                    <mxGeometry width="50" height="50" relative="1" as="geometry">
                        <mxPoint x="310" y="130" as="sourcePoint"/>
                        <mxPoint x="460" y="80" as="targetPoint"/>
                    </mxGeometry>
                </mxCell>
                <mxCell id="4fZSyBF3xoJqCPHSqPE3-11" value="Html,js,react" style="text;strokeColor=#006EAF;align=center;fillColor=#1ba1e2;html=1;verticalAlign=middle;whiteSpace=wrap;rounded=1;shadow=1;glass=0;sketch=1;fontColor=#ffffff;curveFitting=1;jiggle=2;" vertex="1" parent="1">
                    <mxGeometry x="460" y="60" width="90" height="30" as="geometry"/>
                </mxCell>
                <mxCell id="4fZSyBF3xoJqCPHSqPE3-12" value="" style="endArrow=classic;startArrow=classic;html=1;rounded=1;" edge="1" parent="1" source="4fZSyBF3xoJqCPHSqPE3-7">
                    <mxGeometry width="50" height="50" relative="1" as="geometry">
                        <mxPoint x="400" y="250" as="sourcePoint"/>
                        <mxPoint x="520" y="130" as="targetPoint"/>
                        <Array as="points">
                            <mxPoint x="420" y="230"/>
                        </Array>
                    </mxGeometry>
                </mxCell>
            </root>
        </mxGraphModel>
    </diagram>
</mxfile>